<?xml version="1.0" standalone="no"?>
<!DOCTYPE svg PUBLIC "-//W3C//DTD SVG 20010904//EN"
 "http://www.w3.org/TR/2001/REC-SVG-20010904/DTD/svg10.dtd">
<svg version="1.0" xmlns="http://www.w3.org/2000/svg"
 width="32.000000pt" height="32.000000pt" viewBox="0 0 32.000000 32.000000"
 preserveAspectRatio="xMidYMid meet">

<g transform="translate(0.000000,32.000000) scale(0.100000,-0.100000)"
fill="#000000" stroke="none">
<path d="M25 290 c3 -5 12 -10 20 -10 15 0 20 -20 30 -102 5 -40 4 -58 -4 -58
-21 0 -13 -51 9 -57 11 -3 20 -14 20 -24 0 -12 7 -19 20 -19 13 0 20 7 20 20
0 29 55 29 63 0 7 -27 47 -27 47 0 0 11 5 20 10 20 6 0 10 5 10 10 0 6 -38 10
-95 10 -78 0 -95 3 -95 15 0 12 16 15 84 15 55 0 87 4 94 13 14 17 43 118 36
128 -3 5 -52 9 -108 9 -95 0 -104 2 -109 20 -3 14 -14 20 -32 20 -15 0 -24 -4
-20 -10z"/>
</g>
</svg>
